<?xml version="1.0" standalone="no"?>
<!DOCTYPE svg PUBLIC "-//W3C//DTD SVG 20010904//EN"
 "http://www.w3.org/TR/2001/REC-SVG-20010904/DTD/svg10.dtd">
<svg version="1.0" xmlns="http://www.w3.org/2000/svg"
 width="1000.000000pt" height="1000.000000pt" viewBox="0 0 1000.000000 1000.000000"
 preserveAspectRatio="xMidYMid meet">

<g transform="translate(0.000000,1000.000000) scale(0.100000,-0.100000)"
fill="#000000" stroke="none">
<path d="M2355 8060 c-115 -37 -219 -142 -255 -259 -20 -62 -20 -97 -20 -2200
0 -1923 2 -2143 16 -2192 32 -109 118 -209 222 -257 51 -24 71 -27 191 -30
l133 -4 -314 -317 c-363 -364 -362 -364 -363 -506 0 -78 4 -97 27 -146 58
-117 153 -180 283 -187 65 -3 91 0 140 18 57 21 86 48 620 581 l560 559 2015
2 2015 3 65 31 c83 39 155 111 194 194 l31 65 0 2185 0 2185 -33 67 c-41 84
-128 167 -209 200 l-58 23 -2600 2 c-2544 2 -2601 2 -2660 -17z m5045 -2160
l0 -1780 -516 0 c-409 0 -514 3 -508 13 5 6 30 46 57 87 100 153 179 352 220
555 29 145 31 461 4 595 -76 367 -269 699 -534 922 -49 40 -102 83 -118 95
-16 12 -28 23 -25 25 3 3 87 40 188 82 l182 78 0 92 0 91 -396 170 c-218 94
-400 172 -405 173 -6 3 -9 -41 -7 -108 l3 -113 270 -99 c149 -54 277 -101 285
-104 22 -8 10 -13 -178 -83 l-162 -61 -87 36 c-127 51 -300 93 -440 107 -68 6
-123 14 -123 18 0 3 59 168 130 365 72 197 130 362 130 367 0 4 -39 6 -87 5
l-87 -3 -99 -275 c-54 -151 -115 -320 -135 -375 l-37 -99 -100 -17 c-142 -24
-214 -44 -345 -96 -63 -25 -120 -46 -125 -46 -14 0 -368 133 -377 142 -3 3
117 53 268 111 l274 105 0 112 0 112 -77 -34 c-43 -20 -217 -97 -388 -173
l-310 -138 -3 -90 -3 -90 123 -54 c68 -30 160 -71 206 -92 l83 -38 -74 -59
c-321 -259 -529 -624 -591 -1041 -51 -332 34 -741 213 -1035 39 -63 41 -71 26
-80 -10 -5 -30 -20 -45 -32 l-28 -23 -546 0 -546 0 0 1780 0 1780 2420 0 2420
0 0 -1780z m-2105 334 c83 -15 213 -55 253 -78 23 -12 20 -14 -55 -42 -69 -26
-78 -33 -81 -57 -4 -31 2 -32 49 -13 19 7 44 17 57 20 l22 7 0 -215 0 -216 35
0 35 0 2 244 3 244 61 -36 c78 -47 155 -106 222 -169 l52 -49 0 -117 0 -117
30 0 30 0 0 78 0 77 20 -25 c39 -48 109 -176 139 -250 148 -371 103 -783 -122
-1115 -41 -61 -213 -245 -228 -245 -5 0 -10 60 -11 134 l-3 134 -95 -37 c-86
-33 -95 -39 -98 -65 -4 -31 1 -31 77 0 61 25 61 25 61 -100 0 -110 -1 -115
-25 -134 -28 -22 -188 -106 -221 -116 -21 -6 -21 -6 -8 31 8 24 13 83 13 163
0 195 -31 250 -146 258 -48 3 -64 0 -93 -20 -56 -38 -74 -86 -78 -214 -5 -134
13 -212 58 -254 l29 -27 -46 -7 c-99 -13 -293 -6 -396 15 -139 28 -304 97
-399 167 -32 23 -62 42 -67 42 -16 0 -152 132 -198 194 -26 33 -56 71 -68 83
-32 33 -119 207 -149 295 -40 124 -56 228 -56 375 0 267 74 494 233 709 46 62
184 204 199 204 4 0 25 15 45 34 86 77 275 165 432 203 140 33 329 36 486 7z
m108 -1874 c35 -28 47 -76 47 -190 0 -149 -26 -210 -91 -210 -41 0 -66 15 -84
50 -22 42 -21 279 1 321 25 50 84 63 127 29z m2037 -600 l0 -80 -180 0 -180 0
0 80 0 80 180 0 180 0 0 -80z"/>
<path d="M5080 6143 c-19 -10 -45 -33 -57 -52 -21 -32 -23 -44 -23 -190 0
-172 9 -205 63 -245 39 -29 135 -29 174 0 56 41 68 83 68 244 0 159 -9 190
-67 233 -37 28 -114 33 -158 10z m123 -50 c4 -2 15 -19 25 -36 14 -26 17 -57
17 -157 0 -170 -18 -210 -95 -210 -77 0 -95 40 -95 210 0 108 3 130 20 160 26
43 83 58 128 33z"/>
<path d="M5000 5259 c0 -18 8 -41 18 -52 14 -16 18 -43 20 -163 3 -132 2 -148
-17 -180 -23 -38 -28 -84 -10 -84 6 0 26 15 44 33 44 44 59 118 53 257 -5 120
-28 179 -78 205 l-30 16 0 -32z"/>
<path d="M5300 5255 c-79 -31 -85 -35 -88 -64 l-3 -31 65 25 66 25 0 -215 0
-215 35 0 35 0 0 255 c0 198 -3 255 -12 254 -7 -1 -51 -16 -98 -34z"/>
<path d="M5685 5280 c-30 -12 -61 -51 -73 -90 -30 -98 -21 -290 16 -354 44
-77 183 -88 244 -19 32 35 51 139 46 248 -6 119 -29 185 -77 209 -32 17 -122
20 -156 6z m116 -50 c39 -21 49 -62 49 -195 0 -147 -11 -185 -60 -205 -40 -17
-75 -5 -104 33 -18 24 -22 46 -24 134 -5 136 3 189 33 219 26 26 72 32 106 14z"/>
<path d="M6110 5255 c-79 -30 -85 -35 -88 -63 l-3 -30 65 24 66 24 0 -215 0
-215 30 0 30 0 0 255 c0 140 -3 255 -7 254 -5 -1 -46 -16 -93 -34z"/>
</g>
</svg>
